<svg width="30" height="30" viewBox="0 0 30 30" fill="none" xmlns="http://www.w3.org/2000/svg">
<path d="M2.69225 0.230774C1.33648 0.230774 0.230713 1.33654 0.230713 2.69231V5.15385C0.230713 6.50962 1.33648 7.61539 2.69225 7.61539H5.15379C6.50956 7.61539 7.61533 6.50962 7.61533 5.15385V2.69231C7.61533 1.33654 6.50956 0.230774 5.15379 0.230774H2.69225ZM13.7692 0.230774C12.4134 0.230774 11.3076 1.33654 11.3076 2.69231V5.15385C11.3076 6.50962 12.4134 7.61539 13.7692 7.61539H16.2307C17.5865 7.61539 18.6922 6.50962 18.6922 5.15385V2.69231C18.6922 1.33654 17.5865 0.230774 16.2307 0.230774H13.7692ZM24.8461 0.230774C23.4903 0.230774 22.3846 1.33654 22.3846 2.69231V5.15385C22.3846 6.50962 23.4903 7.61539 24.8461 7.61539H27.3076C28.6634 7.61539 29.7692 6.50962 29.7692 5.15385V2.69231C29.7692 1.33654 28.6634 0.230774 27.3076 0.230774H24.8461ZM2.69225 11.3077C1.33648 11.3077 0.230713 12.4135 0.230713 13.7692V16.2308C0.230713 17.5865 1.33648 18.6923 2.69225 18.6923H5.15379C6.50956 18.6923 7.61533 17.5865 7.61533 16.2308V13.7692C7.61533 12.4135 6.50956 11.3077 5.15379 11.3077H2.69225ZM13.7692 11.3077C12.4134 11.3077 11.3076 12.4135 11.3076 13.7692V16.2308C11.3076 17.5865 12.4134 18.6923 13.7692 18.6923H16.2307C17.5865 18.6923 18.6922 17.5865 18.6922 16.2308V13.7692C18.6922 12.4135 17.5865 11.3077 16.2307 11.3077H13.7692ZM24.8461 11.3077C23.4903 11.3077 22.3846 12.4135 22.3846 13.7692V16.2308C22.3846 17.5865 23.4903 18.6923 24.8461 18.6923H27.3076C28.6634 18.6923 29.7692 17.5865 29.7692 16.2308V13.7692C29.7692 12.4135 28.6634 11.3077 27.3076 11.3077H24.8461ZM2.69225 22.3846C1.33648 22.3846 0.230713 23.4904 0.230713 24.8462V27.3077C0.230713 28.6635 1.33648 29.7692 2.69225 29.7692H5.15379C6.50956 29.7692 7.61533 28.6635 7.61533 27.3077V24.8462C7.61533 23.4904 6.50956 22.3846 5.15379 22.3846H2.69225ZM13.7692 22.3846C12.4134 22.3846 11.3076 23.4904 11.3076 24.8462V27.3077C11.3076 28.6635 12.4134 29.7692 13.7692 29.7692H16.2307C17.5865 29.7692 18.6922 28.6635 18.6922 27.3077V24.8462C18.6922 23.4904 17.5865 22.3846 16.2307 22.3846H13.7692ZM24.8461 22.3846C23.4903 22.3846 22.3846 23.4904 22.3846 24.8462V27.3077C22.3846 28.6635 23.4903 29.7692 24.8461 29.7692H27.3076C28.6634 29.7692 29.7692 28.6635 29.7692 27.3077V24.8462C29.7692 23.4904 28.6634 22.3846 27.3076 22.3846H24.8461Z" fill="#C4C4C4"/>
</svg>
