<svg width="20" height="17" viewBox="0 0 20 17" fill="none" xmlns="http://www.w3.org/2000/svg">
<path d="M3.25 0.99707C1.46403 0.99707 0 2.4611 0 4.24707V13.7471C0 15.533 1.46403 16.9971 3.25 16.9971H16.75C18.536 16.9971 20 15.533 20 13.7471V4.24707C20 2.4611 18.536 0.99707 16.75 0.99707H3.25ZM3.25 2.49707H16.75C17.725 2.49707 18.5 3.27204 18.5 4.24707V4.7998L10 9.39453L1.5 4.7998V4.24707C1.5 3.27204 2.27497 2.49707 3.25 2.49707ZM1.5 6.50488L9.64355 10.9072C9.75305 10.9664 9.87555 10.9973 10 10.9973C10.1245 10.9973 10.2469 10.9664 10.3564 10.9072L18.5 6.50488V13.7471C18.5 14.7221 17.725 15.4971 16.75 15.4971H3.25C2.27497 15.4971 1.5 14.7221 1.5 13.7471V6.50488Z" fill="#9B6F47"/>
</svg>
