<svg width="31" height="27" viewBox="0 0 31 27" fill="none" xmlns="http://www.w3.org/2000/svg">
<path d="M29.7692 26.5385C30.5096 26.5385 31 26.0481 31 25.3077V22.8461C31 22.1058 30.5096 21.6154 29.7692 21.6154H27.3077C26.5673 21.6154 26.0769 22.1058 26.0769 22.8461V25.3077C26.0769 26.0481 26.5673 26.5385 27.3077 26.5385H29.7692ZM22.6154 25.3077C23.2933 25.2452 23.7933 24.6394 23.7308 23.9615C23.6683 23.2836 23.0625 22.7836 22.3846 22.8461H1.46154C1.01923 22.8413 0.605766 23.0721 0.379807 23.4567C0.158651 23.8413 0.158651 24.3125 0.379807 24.6971C0.605766 25.0817 1.01923 25.3125 1.46154 25.3077H22.3846C22.4231 25.3077 22.4615 25.3077 22.5 25.3077C22.5385 25.3077 22.5769 25.3077 22.6154 25.3077ZM29.7692 19.1538C30.5096 19.1538 31 18.6635 31 17.9231V15.4615C31 14.7211 30.5096 14.2308 29.7692 14.2308H27.3077C26.5673 14.2308 26.0769 14.7211 26.0769 15.4615V17.9231C26.0769 18.6635 26.5673 19.1538 27.3077 19.1538H29.7692ZM22.6154 17.9231C23.2933 17.8606 23.7933 17.2548 23.7308 16.5769C23.6683 15.899 23.0625 15.399 22.3846 15.4615H1.46154C1.01923 15.4567 0.605766 15.6875 0.379807 16.0721C0.158651 16.4567 0.158651 16.9279 0.379807 17.3125C0.605766 17.6971 1.01923 17.9279 1.46154 17.9231H22.3846C22.4231 17.9231 22.4615 17.9231 22.5 17.9231C22.5385 17.9231 22.5769 17.9231 22.6154 17.9231ZM29.7692 11.7692C30.5096 11.7692 31 11.2788 31 10.5385V8.07691C31 7.33653 30.5096 6.84614 29.7692 6.84614H27.3077C26.5673 6.84614 26.0769 7.33653 26.0769 8.07691V10.5385C26.0769 11.2788 26.5673 11.7692 27.3077 11.7692H29.7692ZM22.6154 10.5385C23.2933 10.476 23.7933 9.87018 23.7308 9.1923C23.6683 8.51441 23.0625 8.01441 22.3846 8.07691H1.46154C1.01923 8.07211 0.605766 8.30287 0.379807 8.68749C0.158651 9.07211 0.158651 9.54326 0.379807 9.92788C0.605766 10.3125 1.01923 10.5433 1.46154 10.5385H22.3846C22.4231 10.5385 22.4615 10.5385 22.5 10.5385C22.5385 10.5385 22.5769 10.5385 22.6154 10.5385ZM29.7692 4.38461C30.5096 4.38461 31 3.89422 31 3.15384V0.692297C31 -0.0480881 30.5096 -0.538471 29.7692 -0.538471H27.3077C26.5673 -0.538471 26.0769 -0.0480881 26.0769 0.692297V3.15384C26.0769 3.89422 26.5673 4.38461 27.3077 4.38461H29.7692ZM22.6154 3.15384C23.2933 3.09134 23.7933 2.48557 23.7308 1.80768C23.6683 1.1298 23.0625 0.629797 22.3846 0.692297H1.46154C1.01923 0.68749 0.605766 0.918259 0.379807 1.30287C0.158651 1.68749 0.158651 2.15864 0.379807 2.54326C0.605766 2.92787 1.01923 3.15864 1.46154 3.15384H22.3846C22.4231 3.15384 22.4615 3.15384 22.5 3.15384C22.5385 3.15384 22.5769 3.15384 22.6154 3.15384Z" fill="white"/>
</svg>
