<svg width="18" height="21" viewBox="0 0 18 21" fill="none" xmlns="http://www.w3.org/2000/svg">
<path d="M9 0.997559C4.31463 0.997559 0.5 4.81218 0.5 9.49756C0.5 11.601 1.27165 13.53 2.53906 15.0132L2.54297 15.0171L2.5459 15.021C2.5459 15.021 6.16186 19.1471 7.44922 20.3755C8.31128 21.1974 9.68774 21.1974 10.5498 20.3755C12.0172 18.9759 15.4551 15.019 15.4551 15.019L15.457 15.0161L15.46 15.0132C16.7285 13.53 17.5 11.601 17.5 9.49756C17.5 4.81218 13.6854 0.997559 9 0.997559ZM9 2.49756C12.8746 2.49756 16 5.62293 16 9.49756C16 11.2352 15.3668 12.8139 14.3193 14.0386C14.3125 14.0464 10.795 18.0693 9.51465 19.2905C9.21771 19.5736 8.78131 19.5736 8.48438 19.2905C7.41429 18.2694 3.69055 14.0509 3.67969 14.0386L3.67871 14.0376C2.63266 12.813 2 11.2347 2 9.49756C2 5.62293 5.12537 2.49756 9 2.49756ZM9 6.49756C8.0625 6.49756 7.26441 6.87612 6.75195 7.45264C6.2395 8.02915 6 8.76839 6 9.49756C6 10.2267 6.2395 10.966 6.75195 11.5425C7.26441 12.119 8.0625 12.4976 9 12.4976C9.9375 12.4976 10.7356 12.119 11.248 11.5425C11.7605 10.966 12 10.2267 12 9.49756C12 8.76839 11.7605 8.02915 11.248 7.45264C10.7356 6.87612 9.9375 6.49756 9 6.49756ZM9 7.99756C9.5625 7.99756 9.88941 8.18149 10.127 8.44873C10.3645 8.71597 10.5 9.10172 10.5 9.49756C10.5 9.89339 10.3645 10.2791 10.127 10.5464C9.88941 10.8136 9.5625 10.9976 9 10.9976C8.4375 10.9976 8.11059 10.8136 7.87305 10.5464C7.6355 10.2791 7.5 9.89339 7.5 9.49756C7.5 9.10172 7.6355 8.71597 7.87305 8.44873C8.11059 8.18149 8.4375 7.99756 9 7.99756Z" fill="#9B6F47"/>
</svg>
