<svg width="17" height="21" viewBox="0 0 17 21" fill="none" xmlns="http://www.w3.org/2000/svg">
<path d="M1.52125 2.28886C1.36278 2.57084 1.2388 2.87495 1.15492 3.19485C0.409901 6.03577 1.21291 9.39349 3.34898 13.1681C5.48796 16.9479 7.94309 19.3439 10.7466 20.1071C12.0065 20.4503 13.366 20.098 14.3196 19.1918L15.215 18.3421C16.2156 17.3923 16.3832 15.8365 15.5851 14.7128L14.3144 12.9215C13.6338 11.9622 12.4015 11.5548 11.2788 11.9097L9.31911 12.5306C9.25902 12.5496 9.19927 12.5454 9.14932 12.5239L9.14847 12.5234C9.04586 12.4788 9.00134 12.477 8.75874 12.2375C8.51566 11.9976 8.1382 11.5322 7.64892 10.6676C7.19303 9.86236 6.92949 9.2037 6.84935 8.7908C6.80512 8.55956 6.8057 8.32671 6.87047 8.26398L6.87096 8.26314L8.4176 6.80497C9.27699 5.99573 9.54106 4.73034 9.07011 3.65332L9.06975 3.65198L8.18973 1.64302L8.19022 1.64217C7.63881 0.383604 6.21454 -0.263948 4.9005 0.140908L3.72685 0.501855C3.09695 0.69608 2.53806 1.05013 2.09449 1.51473C1.8727 1.74704 1.67973 2.00688 1.52125 2.28886ZM2.82944 3.02497C2.92671 2.85327 3.0454 2.69474 3.18112 2.55256C3.45257 2.26821 3.79296 2.05136 4.16889 1.93545L5.34169 1.57401C5.94204 1.38904 6.56646 1.67499 6.81611 2.24485L7.69613 4.25381C7.91143 4.74617 7.79262 5.33316 7.38936 5.7129L5.83663 7.1777L5.8348 7.1789C5.09772 7.88416 5.33433 8.85277 5.37709 9.07519L5.37661 9.07604L5.37745 9.07653C5.51084 9.76378 5.84192 10.5208 6.34362 11.407C6.88116 12.3569 7.32851 12.9345 7.70452 13.3057C8.08054 13.6769 8.44924 13.8548 8.55051 13.899C8.93704 14.067 9.37104 14.0871 9.77097 13.9609L11.7315 13.3405C12.2489 13.1769 12.7832 13.3557 13.0907 13.7891L13.0902 13.79L14.3622 15.5809C14.7207 16.0857 14.649 16.8123 14.183 17.2546L13.2875 18.1044L13.2867 18.1039C12.7119 18.6505 11.8801 18.8616 11.141 18.6602C8.90018 18.0503 6.68457 16.0154 4.65513 12.4292C2.62844 8.84789 2.00338 5.87135 2.60569 3.57463C2.65632 3.38155 2.73217 3.19667 2.82944 3.02497Z" fill="#9B6F47"/>
</svg>
