<svg width="16" height="21" viewBox="0 0 16 21" fill="none" xmlns="http://www.w3.org/2000/svg">
<path d="M8 0.89772C5.24746 0.89772 3 3.13241 3 5.86931C3 8.60621 5.24746 10.8409 8 10.8409C10.7525 10.8409 13 8.60621 13 5.86931C13 3.13241 10.7525 0.89772 8 0.89772ZM8 2.3892C9.94188 2.3892 11.5 3.93846 11.5 5.86931C11.5 7.80016 9.94188 9.34943 8 9.34943C6.05812 9.34943 4.5 7.80016 4.5 5.86931C4.5 3.93846 6.05812 2.3892 8 2.3892ZM2.25 12.8295C1.01625 12.8295 0 13.84 0 15.0668V15.663C0 17.125 0.932357 18.4365 2.35449 19.3382C3.77663 20.24 5.72242 20.7841 8 20.7841C10.2776 20.7841 12.2234 20.24 13.6455 19.3382C15.0676 18.4365 16 17.125 16 15.663V15.0668C16 13.84 14.9838 12.8295 13.75 12.8295H2.25ZM2.25 14.321H13.75C14.1732 14.321 14.5 14.6459 14.5 15.0668V15.663C14.5 16.4908 13.9637 17.3675 12.8389 18.0808C11.714 18.794 10.0344 19.2926 8 19.2926C5.96558 19.2926 4.286 18.794 3.16113 18.0808C2.03627 17.3675 1.5 16.4908 1.5 15.663V15.0668C1.5 14.6459 1.82675 14.321 2.25 14.321Z" fill="#595853"/>
</svg>
