<svg width="20" height="22" viewBox="0 0 20 22" fill="none" xmlns="http://www.w3.org/2000/svg">
<path d="M9.5 0.994324C7.19265 0.994324 5.27985 2.74138 5.0293 4.9716H4C2.844 4.9716 1.88172 5.83327 1.76172 6.97674L0.511722 18.9086C0.445722 19.5375 0.652129 20.1681 1.07813 20.6389C1.50413 21.1087 2.114 21.3778 2.75 21.3778H17.25C17.886 21.3778 18.4959 21.1087 18.9219 20.6389C19.3479 20.1686 19.5533 19.5375 19.4873 18.9086L18.2383 6.97674C18.1183 5.83327 17.156 4.9716 16 4.9716H14.9766C14.9921 5.13566 15 5.30171 15 5.46876V6.46307H16C16.3855 6.46307 16.7061 6.75078 16.7461 7.1321L17.9961 19.0639C18.0181 19.2737 17.9491 19.4836 17.8076 19.6397C17.6656 19.7963 17.462 19.8864 17.25 19.8864H2.75C2.538 19.8864 2.33486 19.7968 2.19336 19.6407C2.05136 19.4841 1.98191 19.2737 2.00391 19.0639L3.25391 7.1321C3.29391 6.75078 3.6145 6.46307 4 6.46307H5V8.20313C4.9986 8.30195 5.01696 8.40006 5.05402 8.49176C5.09108 8.58347 5.1461 8.66693 5.21588 8.7373C5.28567 8.80768 5.36882 8.86356 5.46051 8.90171C5.55221 8.93985 5.65061 8.95949 5.75 8.95949C5.8494 8.95949 5.9478 8.93985 6.03949 8.90171C6.13119 8.86356 6.21434 8.80768 6.28412 8.7373C6.35391 8.66693 6.40893 8.58347 6.44599 8.49176C6.48305 8.40006 6.50141 8.30195 6.5 8.20313V5.46876C6.5 3.81258 7.83436 2.4858 9.5 2.4858C10.9949 2.4858 12.22 3.55523 12.4561 4.9716H7.56641C7.52441 5.13069 7.5 5.29674 7.5 5.46876V6.46307H12.5V8.20313C12.4986 8.30195 12.517 8.40006 12.554 8.49176C12.5911 8.58347 12.6461 8.66693 12.7159 8.7373C12.7857 8.80768 12.8688 8.86356 12.9605 8.90171C13.0522 8.93985 13.1506 8.95949 13.25 8.95949C13.3494 8.95949 13.4478 8.93985 13.5395 8.90171C13.6312 8.86356 13.7143 8.80768 13.7841 8.7373C13.8539 8.66693 13.9089 8.58347 13.946 8.49176C13.983 8.40006 14.0014 8.30195 14 8.20313V5.46876C14 3.00647 11.9764 0.994324 9.5 0.994324Z" fill="#454544"/>
</svg>
