<svg width="40" height="43" viewBox="0 0 40 43" fill="none" xmlns="http://www.w3.org/2000/svg">
<path d="M20.1113 0.00582651C19.0339 -0.000923489 17.9541 0.375392 17.1016 1.13669L16.0957 2.03317L14.7793 1.74215C12.5477 1.24707 10.2749 2.53953 9.5586 4.7109L9.13672 5.99215L7.84961 6.39645C5.66858 7.08356 4.34564 9.34024 4.81055 11.5781L5.08594 12.8984L4.17579 13.8925C4.17514 13.8925 4.17448 13.8925 4.17383 13.8925C2.63102 15.5789 2.61414 18.1933 4.13672 19.8984L5.03321 20.9043L4.74219 22.2207C4.39761 23.7739 4.93276 25.3342 6.01368 26.3886L0.439459 31.9629C0.25703 32.1452 0.124713 32.3716 0.0552885 32.62C-0.0141362 32.8685 -0.0183232 33.1306 0.043132 33.3811C0.104587 33.6317 0.229608 33.8621 0.40612 34.0502C0.582631 34.2384 0.804668 34.3778 1.05079 34.455L6.92188 36.2988L8.53516 41.914C8.60731 42.1648 8.74362 42.3924 8.93063 42.5744C9.11764 42.7564 9.34889 42.8864 9.60153 42.9517C9.85418 43.017 10.1195 43.0152 10.3712 42.9466C10.623 42.878 10.8525 42.7449 11.0371 42.5605L19.4707 34.1269C19.5207 34.0769 19.567 34.0233 19.6094 33.9668C19.8593 33.9838 20.1079 33.9794 20.3574 33.955L28.9629 42.5605C29.1475 42.7449 29.377 42.878 29.6288 42.9466C29.8805 43.0152 30.1458 43.017 30.3985 42.9517C30.6511 42.8864 30.8824 42.7564 31.0694 42.5744C31.2564 42.3924 31.3927 42.1648 31.4648 41.914L33.0781 36.2988L38.9492 34.455C39.1953 34.3778 39.4174 34.2384 39.5939 34.0502C39.7704 33.8621 39.8954 33.6317 39.9569 33.3811C40.0183 33.1306 40.0141 32.8685 39.9447 32.62C39.8753 32.3716 39.743 32.1452 39.5606 31.9629L34.0195 26.4218C35.0103 25.3847 35.4975 23.9046 35.1895 22.4218L34.9141 21.1015L35.8262 20.1074C37.369 18.4211 37.3859 15.8066 35.8633 14.1015L34.9668 13.0957L35.2578 11.7812C35.7529 9.54958 34.4604 7.27487 32.2891 6.55856L31.0078 6.13668L30.6035 4.85153C29.9171 2.66948 27.6603 1.34744 25.4219 1.81247L24.1016 2.08786L23.1074 1.17575C23.1074 1.1751 23.1074 1.17445 23.1074 1.1738C22.2643 0.402385 21.1888 0.0125804 20.1113 0.00582651ZM20.0918 2.99411C20.4443 2.99636 20.7972 3.12805 21.082 3.38864L22.6406 4.81833C22.8163 4.97898 23.0276 5.09553 23.2572 5.15836C23.4868 5.22119 23.728 5.22849 23.9609 5.17965L26.0313 4.74997C26.7868 4.593 27.5107 5.01597 27.7422 5.75192L28.3789 7.77145C28.4503 7.99848 28.5747 8.20527 28.7418 8.37473C28.9088 8.5442 29.1139 8.67148 29.3398 8.74606L31.3496 9.40817C32.0822 9.64985 32.497 10.3785 32.3301 11.1308L31.8711 13.1972C31.8196 13.4296 31.824 13.6708 31.8841 13.9011C31.9443 14.1313 32.0583 14.344 32.2168 14.5215L33.627 16.0996C34.1404 16.6745 34.1345 17.5123 33.6133 18.082L32.1836 19.6425C32.0232 19.818 31.9069 20.029 31.844 20.2582C31.7812 20.4874 31.7738 20.7282 31.8223 20.9609L32.252 23.0332C32.4063 23.781 31.9922 24.4961 31.2695 24.7343C31.2213 24.7476 31.1737 24.7632 31.127 24.7812L29.2305 25.3789C29.0034 25.4503 28.7967 25.5746 28.6272 25.7417C28.4577 25.9088 28.3304 26.1138 28.2559 26.3398L27.5938 28.3496C27.3521 29.0822 26.6235 29.497 25.8711 29.33L23.8047 28.8711C23.5727 28.8198 23.3318 28.8245 23.1019 28.8846C22.872 28.9447 22.6597 29.0585 22.4824 29.2168L20.9024 30.625C20.9017 30.625 20.901 30.625 20.9004 30.625C20.3261 31.1378 19.4896 31.1326 18.9199 30.6132L18.918 30.6113L17.3574 29.1836C17.1822 29.0229 16.9713 28.9061 16.7421 28.843C16.5128 28.7798 16.2719 28.772 16.0391 28.8203L13.9688 29.2519C13.2132 29.4089 12.4893 28.984 12.2578 28.248L11.6211 26.2285C11.5495 26.0018 11.425 25.7954 11.2579 25.6263C11.0908 25.4572 10.8859 25.3302 10.6602 25.2558L8.6504 24.5918C7.91777 24.3501 7.50301 23.6215 7.66993 22.8691L8.12891 20.8027C8.18013 20.5707 8.17549 20.3298 8.11539 20.0999C8.05528 19.87 7.94143 19.6577 7.78321 19.4804L6.37501 17.9023C6.37501 17.9017 6.37501 17.901 6.37501 17.9004C5.8622 17.3261 5.86738 16.4895 6.38672 15.9199L6.38868 15.9179L7.81641 14.3574C7.97711 14.1822 8.09385 13.9712 8.15701 13.742C8.22017 13.5128 8.22795 13.2718 8.1797 13.039L7.74805 10.9687V10.9668C7.59227 10.2119 8.01667 9.4891 8.75196 9.25778L10.7715 8.62106C10.9982 8.54941 11.2046 8.42492 11.3737 8.25785C11.5428 8.09077 11.6698 7.8859 11.7441 7.66012L12.4082 5.65036C12.6499 4.91773 13.3785 4.50298 14.1309 4.66989L16.1973 5.12887C16.4293 5.18009 16.6702 5.17545 16.9001 5.11535C17.1299 5.05524 17.3423 4.94139 17.5195 4.78317L19.0977 3.37497C19.0983 3.37497 19.099 3.37497 19.0996 3.37497C19.3871 3.11826 19.7393 2.99186 20.0918 2.99411ZM26.0762 12.8808C25.6866 12.8922 25.3168 13.0547 25.0449 13.334L18.334 20.0449L14.9551 16.666C14.8169 16.522 14.6513 16.4071 14.4681 16.3279C14.2849 16.2487 14.0878 16.2069 13.8882 16.2049C13.6887 16.2028 13.4907 16.2407 13.3059 16.3161C13.1212 16.3915 12.9533 16.5031 12.8122 16.6442C12.6711 16.7853 12.5595 16.9532 12.4841 17.1379C12.4087 17.3227 12.3709 17.5206 12.3729 17.7202C12.3749 17.9198 12.4167 18.1169 12.4959 18.3001C12.5751 18.4833 12.69 18.6489 12.834 18.7871L17.2734 23.2285C17.4128 23.368 17.5782 23.4787 17.7604 23.5542C17.9425 23.6297 18.1378 23.6686 18.335 23.6686C18.5322 23.6686 18.7274 23.6297 18.9095 23.5542C19.0917 23.4787 19.2572 23.368 19.3965 23.2285L27.166 15.455C27.3824 15.2443 27.5302 14.9731 27.5899 14.677C27.6496 14.3809 27.6186 14.0737 27.5008 13.7955C27.383 13.5173 27.184 13.2812 26.9299 13.118C26.6757 12.9548 26.3781 12.8721 26.0762 12.8808ZM8.83399 27.8105L8.9922 27.8632L9.39649 29.1504C10.0836 31.3314 12.3403 32.6543 14.5781 32.1894L15.8984 31.914L16.7031 32.6523L10.7149 38.6406L9.58204 34.6953C9.51338 34.4572 9.38684 34.2399 9.21371 34.0626C9.04057 33.8854 8.82624 33.7538 8.58985 33.6796L4.3086 32.3359L8.83399 27.8105ZM31.2441 27.8886L35.6914 32.3359L31.4102 33.6796C31.1738 33.7538 30.9594 33.8854 30.7863 34.0626C30.6132 34.2399 30.4866 34.4572 30.418 34.6953L29.2852 38.6406L23.2207 32.5761L23.9043 31.9668L25.2207 32.2578C27.4523 32.7529 29.7271 31.4604 30.4434 29.289L30.8652 28.0078L31.2441 27.8886Z" fill="#9B6F47"/>
</svg>
